<svg xmlns="http://www.w3.org/2000/svg" width="78" height="78" fill="none" viewBox="0 0 78 78">
    <path fill="#6B82B7" d="M39 0C17.494 0 0 17.494 0 39s17.494 39 39 39 39-17.497 39-39S60.506 0 39 0zm0 71.958C20.83 71.958 6.042 57.174 6.042 39S20.829 6.042 39 6.042c18.17 0 32.958 14.784 32.958 32.958S57.174 71.958 39 71.958z"/>
    <path fill="#6B82B7" d="M54.105 35.707H42.022V23.623c0-1.667-1.35-3.02-3.021-3.02-1.671 0-3.021 1.353-3.021 3.02v12.084H23.896c-1.67 0-3.021 1.353-3.021 3.021s1.35 3.021 3.021 3.021H35.98v12.084c0 1.667 1.35 3.02 3.02 3.02 1.671 0 3.022-1.353 3.022-3.02V41.749h12.083c1.67 0 3.021-1.353 3.021-3.02 0-1.669-1.35-3.022-3.02-3.022z"/>
</svg>
