<svg xmlns="http://www.w3.org/2000/svg" width="34" height="34" fill="none" viewBox="0 0 34 34">
    <path fill="#fff" d="M25.404 15.498c-.172-.38-.55-.623-.966-.623h-4.25V1.062C20.188.477 19.712 0 19.125 0h-4.25c-.586 0-1.062.476-1.062 1.063v13.812h-4.25c-.417 0-.795.244-.967.623-.174.38-.106.824.168 1.139l7.437 8.5c.202.231.493.363.8.363.305 0 .596-.134.798-.363l7.438-8.5c.276-.313.34-.759.168-1.14z"/>
    <path fill="#fff" d="M28.688 23.375v6.375H5.313v-6.375h-4.25v8.5c0 1.175.952 2.125 2.125 2.125h27.625c1.175 0 2.125-.95 2.125-2.125v-8.5h-4.25z"/>
</svg>
