<svg xmlns="http://www.w3.org/2000/svg" width="19" height="19" fill="none" viewBox="0 0 19 19">
    <path fill="#fff" d="M9.468 1.61h-7.1c-.436 0-.79.353-.79.788v14.203c0 .436.354.79.79.79h7.1c.437 0 .79.352.79.788 0 .437-.353.79-.79.79h-7.1C1.061 18.968 0 17.905 0 16.6V2.398C0 1.093 1.062.031 2.367.031h7.101c.437 0 .79.353.79.79 0 .436-.353.788-.79.788z"/>
    <path fill="#fff" d="M18.765 10.062l-4.797 4.734c-.31.306-.81.302-1.116-.008-.306-.31-.303-.81.008-1.116l3.428-3.383H7.102c-.437 0-.79-.353-.79-.79 0-.436.353-.788.79-.788h9.186L12.86 5.327c-.31-.306-.313-.805-.008-1.115.155-.157.358-.235.562-.235.2 0 .4.075.554.227l4.797 4.734c.15.148.235.35.235.562 0 .211-.084.412-.235.562z"/>
</svg>
