<svg xmlns="http://www.w3.org/2000/svg" width="23" height="23" fill="none" viewBox="0 0 23 23">
    <g fill="#fff" clip-path="url(#clip0)">
        <path d="M12.222 23h-1.444c-1.167 0-2.117-.95-2.117-2.117v-.489c-.496-.158-.979-.358-1.442-.598l-.346.346c-.838.84-2.18.814-2.995 0l-1.02-1.02c-.815-.815-.839-2.157 0-2.995l.346-.346c-.24-.463-.44-.946-.598-1.442h-.489C.95 14.34 0 13.39 0 12.222v-1.444c0-1.167.95-2.117 2.117-2.117h.489c.158-.496.358-.979.598-1.442l-.346-.346c-.838-.838-.815-2.18 0-2.995l1.02-1.02c.816-.817 2.159-.837 2.995 0l.346.346c.463-.24.946-.44 1.442-.598v-.489C8.66.95 9.61 0 10.778 0h1.444c1.167 0 2.117.95 2.117 2.117v.489c.496.158.979.358 1.442.598l.346-.346c.838-.84 2.18-.815 2.995 0l1.02 1.02c.815.815.839 2.157 0 2.995l-.346.346c.24.463.44.946.598 1.442h.489c1.167 0 2.117.95 2.117 2.117v1.444c0 1.167-.95 2.117-2.117 2.117h-.489c-.158.496-.358.979-.598 1.442l.346.346c.838.838.815 2.18 0 2.995l-1.02 1.02c-.816.817-2.159.837-2.995 0l-.346-.346c-.463.24-.946.44-1.442.598v.489c0 1.167-.95 2.117-2.117 2.117zm-4.778-4.62c.644.381 1.337.669 2.06.855.297.077.505.346.505.653v.995c0 .424.345.77.77.77h1.443c.424 0 .77-.346.77-.77v-.995c0-.308.207-.576.505-.653.722-.186 1.415-.474 2.059-.854.264-.157.602-.114.82.103l.704.705c.304.304.792.297 1.088 0l1.021-1.02c.296-.296.306-.784 0-1.089l-.705-.705c-.217-.217-.26-.555-.103-.82.38-.643.668-1.336.854-2.058.077-.298.346-.505.653-.505h.995c.424 0 .77-.346.77-.77v-1.444c0-.424-.346-.77-.77-.77h-.995c-.308 0-.576-.207-.653-.505-.186-.722-.474-1.415-.854-2.059-.157-.264-.114-.602.103-.82l.705-.704c.305-.304.297-.792 0-1.088l-1.02-1.02c-.296-.297-.784-.306-1.089-.001l-.705.705c-.217.217-.555.26-.82.103-.643-.38-1.335-.668-2.058-.854-.298-.077-.505-.345-.505-.653v-.995c0-.424-.346-.77-.77-.77h-1.444c-.424 0-.77.346-.77.77v.995c0 .308-.207.576-.505.653-.722.186-1.415.474-2.059.854-.264.157-.602.114-.82-.103L5.92 3.81c-.304-.304-.792-.297-1.088 0L3.81 4.83c-.296.296-.306.784 0 1.089l.705.705c.217.217.26.555.103.82-.38.643-.668 1.336-.854 2.058-.077.298-.345.505-.653.505h-.995c-.424 0-.77.346-.77.77v1.444c0 .424.346.77.77.77h.995c.308 0 .576.207.653.505.186.722.474 1.415.854 2.059.157.264.114.602-.103.82l-.705.704c-.305.304-.297.792 0 1.088l1.02 1.021c.296.296.784.305 1.089 0l.705-.705c.16-.16.494-.296.82-.103z"/>
        <path d="M11.5 16.504c-2.76 0-5.005-2.245-5.005-5.004 0-2.76 2.245-5.004 5.004-5.004 2.76 0 5.005 2.245 5.005 5.004 0 2.76-2.245 5.004-5.005 5.004zm0-8.66c-2.017 0-3.657 1.64-3.657 3.656s1.64 3.656 3.656 3.656c2.017 0 3.657-1.64 3.657-3.656s-1.64-3.657-3.657-3.657z"/>
    </g>
    <defs>
        <clipPath id="clip0">
            <path fill="#fff" d="M0 0H23V23H0z"/>
        </clipPath>
    </defs>
</svg>
