<svg xmlns="http://www.w3.org/2000/svg" width="36" height="36" fill="none" viewBox="0 0 36 36">
    <path fill="#fff" d="M28.547 23.344c-2.084 0-3.92 1.025-5.074 2.584l-9.974-5.107c.166-.564.282-1.15.282-1.766 0-.837-.171-1.633-.468-2.365l10.438-6.281c1.161 1.363 2.868 2.247 4.796 2.247 3.49 0 6.328-2.838 6.328-6.328S32.036 0 28.547 0c-3.49 0-6.328 2.839-6.328 6.328 0 .804.165 1.567.44 2.275l-10.469 6.3c-1.16-1.323-2.843-2.176-4.737-2.176-3.49 0-6.328 2.838-6.328 6.328s2.839 6.328 6.328 6.328c2.119 0 3.986-1.055 5.135-2.658l9.94 5.09c-.182.59-.31 1.206-.31 1.857 0 3.49 2.84 6.328 6.329 6.328 3.49 0 6.328-2.839 6.328-6.328 0-3.49-2.839-6.328-6.328-6.328z"/>
</svg>
