<svg xmlns="http://www.w3.org/2000/svg" width="32" height="32" fill="none" viewBox="0 0 32 32">
    <path fill="#fff" d="M31.797 15.378C31.51 14.987 24.699 5.802 16 5.802 7.3 5.802.489 14.987.203 15.377c-.27.371-.27.874 0 1.245C.49 17.014 7.3 26.198 16 26.198s15.51-9.184 15.797-9.575c.27-.371.27-.875 0-1.245zM16 24.088c-6.408 0-11.958-6.096-13.601-8.089 1.64-1.994 7.179-8.087 13.6-8.087 6.409 0 11.958 6.095 13.602 8.089-1.64 1.994-7.18 8.087-13.601 8.087z"/>
    <path fill="#fff" d="M16 9.67c-3.49 0-6.33 2.84-6.33 6.33s2.84 6.33 6.33 6.33 6.33-2.84 6.33-6.33S19.49 9.67 16 9.67zm0 10.55c-2.327 0-4.22-1.893-4.22-4.22s1.893-4.22 4.22-4.22c2.326 0 4.22 1.893 4.22 4.22s-1.893 4.22-4.22 4.22z"/>
</svg>
