<svg width="12" height="11" viewBox="0 0 12 11" fill="none" xmlns="http://www.w3.org/2000/svg">
<path d="M11.8082 5.07261L7.47457 1.10004C7.35086 0.986638 7.18599 0.924395 7.01018 0.924395C6.83419 0.924395 6.66941 0.986727 6.5457 1.10004L6.15224 1.4608C6.02863 1.57402 5.96053 1.72524 5.96053 1.88648C5.96053 2.04764 6.02863 2.20396 6.15224 2.31718L8.68041 4.63977H0.648287C0.286144 4.63977 0 4.89965 0 5.23171V5.74173C0 6.07378 0.286144 6.35987 0.648287 6.35987H8.7091L6.15234 8.69543C6.02873 8.80883 5.96063 8.95594 5.96063 9.11718C5.96063 9.27824 6.02873 9.4275 6.15234 9.54081L6.5458 9.90041C6.6695 10.0138 6.83428 10.0756 7.01028 10.0756C7.18608 10.0756 7.35096 10.013 7.47467 9.89961L11.8083 5.92712C11.9323 5.81336 12.0005 5.66151 12 5.50009C12.0004 5.33813 11.9323 5.18619 11.8082 5.07261Z" fill="white"/>
</svg>
