<svg xmlns="http://www.w3.org/2000/svg" width="341" height="488" fill="none" viewBox="0 0 341 488">
    <rect width="338" height="485" x="1.5" y="1.5" stroke="#6B82B7" stroke-width="3" rx="22.5"/>
    <path stroke="gray" stroke-width="2" d="M81 92L260 92M81 426L260 426"/>
    <path fill="gray" d="M146.982 332.861c-6.56 0-11.357-1.271-14.391-3.813-3.034-2.624-4.633-6.97-4.797-13.038-.082-8.118-.164-15.662-.246-22.632v-21.033c.082-7.052.164-14.596.246-22.632.082-5.986 1.64-10.291 4.674-12.915 3.116-2.624 7.913-3.936 14.391-3.936s11.234 1.353 14.268 4.059c3.116 2.624 4.797 6.888 5.043 12.792.164 3.28.246 6.314.246 9.102 0 2.788-.082 5.781-.246 8.979h-9.717c.082-3.28.123-6.314.123-9.102.082-2.87.041-5.945-.123-9.225-.082-3.116-.861-5.248-2.337-6.396-1.394-1.23-3.813-1.845-7.257-1.845-3.28 0-5.658.615-7.134 1.845-1.394 1.148-2.091 3.28-2.091 6.396-.164 6.396-.287 12.3-.369 17.712-.082 5.412-.123 10.66-.123 15.744 0 5.002.041 10.209.123 15.621.082 5.33.205 11.234.369 17.712 0 3.198.697 5.371 2.091 6.519 1.476 1.148 3.895 1.722 7.257 1.722 3.526 0 6.027-.574 7.503-1.722 1.558-1.148 2.378-3.321 2.46-6.519.164-2.706.205-5.494.123-8.364 0-2.87-.041-6.642-.123-11.316h9.717c.164 3.936.246 7.421.246 10.455 0 2.952-.082 5.945-.246 8.979-.246 6.068-1.927 10.414-5.043 13.038-3.034 2.542-7.913 3.813-14.637 3.813zm38.884-.861l-10.947-98.4h10.086l5.658 54.735 2.706 34.932h4.797l2.829-34.932 5.535-54.735h10.086L205.669 332h-19.803z"/>
</svg>
