<svg xmlns="http://www.w3.org/2000/svg" width="211" height="54" fill="none" viewBox="0 0 211 54">
    <rect width="61" height="43" y="8" fill="#6B82B7" rx="10"/>
    <path fill="#6B82B7" d="M89.831 34.527c-.221 3.06-1.354 5.47-3.398 7.227-2.032 1.758-4.714 2.637-8.047 2.637-3.646 0-6.517-1.224-8.614-3.672-2.083-2.461-3.125-5.834-3.125-10.117v-1.739c0-2.734.482-5.143 1.446-7.226.963-2.084 2.337-3.679 4.12-4.785 1.798-1.12 3.881-1.68 6.25-1.68 3.282 0 5.925.879 7.93 2.637 2.006 1.757 3.165 4.225 3.477 7.402h-5.86c-.142-1.836-.657-3.164-1.542-3.984-.873-.834-2.207-1.25-4.004-1.25-1.953 0-3.418.703-4.395 2.109-.963 1.393-1.458 3.561-1.484 6.504v2.148c0 3.073.462 5.32 1.387 6.739.937 1.419 2.409 2.129 4.414 2.129 1.81 0 3.157-.41 4.043-1.231.898-.833 1.412-2.116 1.543-3.848h5.86z"/>
    <path fill="#000" d="M106.565 21.873c-.615-.103-1.282-.154-2-.154-2.666 0-4.475 1.136-5.427 3.406V42h-4.065V18.226h3.955l.066 2.746c1.333-2.124 3.223-3.186 5.669-3.186.791 0 1.392.103 1.802.308v3.779zm13.184 20.567c-3.223 0-5.845-1.055-7.867-3.165-2.021-2.124-3.032-4.958-3.032-8.503v-.747c0-2.358.447-4.46 1.34-6.306.909-1.86 2.168-3.31 3.78-4.35 1.626-1.055 3.384-1.583 5.273-1.583 3.091 0 5.493 1.018 7.207 3.054 1.714 2.037 2.571 4.951 2.571 8.745v1.692h-16.106c.059 2.344.74 4.241 2.043 5.691 1.319 1.436 2.989 2.154 5.01 2.154 1.436 0 2.652-.293 3.648-.88.996-.585 1.867-1.362 2.614-2.328l2.483 1.933c-1.992 3.062-4.98 4.593-8.964 4.593zm-.506-21.314c-1.64 0-3.017.6-4.131 1.802-1.113 1.186-1.801 2.856-2.065 5.01h11.909v-.308c-.117-2.066-.674-3.662-1.67-4.79-.996-1.143-2.344-1.714-4.043-1.714zM148.423 42c-.235-.469-.425-1.304-.571-2.505-1.89 1.963-4.146 2.945-6.768 2.945-2.344 0-4.27-.66-5.779-1.978-1.494-1.333-2.241-3.018-2.241-5.054 0-2.475.937-4.394 2.812-5.757 1.89-1.377 4.541-2.065 7.955-2.065h3.955v-1.868c0-1.42-.425-2.549-1.275-3.384-.849-.85-2.102-1.274-3.757-1.274-1.45 0-2.666.366-3.648 1.099-.981.732-1.472 1.618-1.472 2.658h-4.087c0-1.186.418-2.329 1.253-3.427.849-1.114 1.992-1.992 3.428-2.637 1.45-.645 3.039-.967 4.768-.967 2.739 0 4.885.689 6.438 2.066 1.552 1.362 2.358 3.244 2.417 5.646v10.943c0 2.182.278 3.918.835 5.207V42h-4.263zm-6.746-3.098c1.275 0 2.483-.33 3.626-.989 1.142-.66 1.97-1.516 2.483-2.57v-4.879H144.6c-4.981 0-7.471 1.458-7.471 4.373 0 1.274.425 2.27 1.274 2.988.85.718 1.941 1.077 3.274 1.077zm22.061-26.433v5.757h4.438v3.142h-4.438V36.11c0 .953.198 1.67.593 2.154.396.468 1.069.703 2.022.703.468 0 1.113-.088 1.933-.264V42c-1.069.293-2.109.44-3.12.44-1.816 0-3.186-.55-4.109-1.648-.923-1.1-1.384-2.66-1.384-4.68V21.367h-4.329v-3.142h4.329v-5.757h4.065zm7.69 17.424c0-2.329.454-4.424 1.363-6.284.922-1.86 2.197-3.296 3.823-4.307 1.64-1.01 3.508-1.516 5.603-1.516 3.237 0 5.852 1.12 7.844 3.362 2.007 2.241 3.01 5.222 3.01 8.943v.285c0 2.315-.446 4.395-1.34 6.24-.879 1.832-2.146 3.26-3.801 4.285-1.641 1.026-3.531 1.538-5.669 1.538-3.223 0-5.838-1.12-7.844-3.361-1.993-2.242-2.989-5.208-2.989-8.9v-.285zm4.087.483c0 2.637.608 4.754 1.824 6.35 1.23 1.597 2.871 2.396 4.922 2.396 2.065 0 3.706-.806 4.922-2.417 1.215-1.626 1.823-3.897 1.823-6.812 0-2.607-.622-4.717-1.867-6.328-1.231-1.626-2.871-2.439-4.922-2.439-2.007 0-3.626.798-4.856 2.395-1.231 1.597-1.846 3.882-1.846 6.855zm34.146-8.503c-.616-.103-1.282-.154-2-.154-2.666 0-4.475 1.136-5.427 3.406V42h-4.065V18.226h3.955l.066 2.746c1.333-2.124 3.223-3.186 5.669-3.186.791 0 1.391.103 1.802.308v3.779z"/>
    <path fill="#fff" d="M20.964 36.84c1.042 0 1.888-.287 2.539-.86.651-.572.99-1.334 1.016-2.285h5.293c-.014 1.433-.404 2.748-1.172 3.946-.769 1.184-1.823 2.109-3.164 2.773-1.328.651-2.8.977-4.415.977-3.02 0-5.403-.957-7.148-2.871-1.745-1.928-2.617-4.584-2.617-7.97v-.37c0-3.256.866-5.853 2.598-7.793 1.731-1.94 4.108-2.91 7.129-2.91 2.643 0 4.759.755 6.347 2.265 1.602 1.498 2.415 3.496 2.441 5.996H24.52c-.026-1.093-.365-1.979-1.016-2.656-.651-.69-1.51-1.035-2.578-1.035-1.315 0-2.311.482-2.989 1.445-.663.95-.996 2.5-.996 4.649v.586c0 2.174.332 3.737.996 4.687.665.95 1.674 1.426 3.028 1.426zm19.98-2.735l3.926-14.238h5.899L43.639 41h-5.39L31.12 19.867h5.899l3.925 14.238z"/>
</svg>
