<svg xmlns="http://www.w3.org/2000/svg" width="12" height="11" fill="none" viewBox="0 0 12 11">
    <path fill="#6B82B7" d="M11.808 5.073L7.475 1.1C7.35.987 7.186.924 7.01.924c-.176 0-.34.063-.464.176l-.394.36c-.123.114-.191.265-.191.426 0 .162.068.318.191.431L8.68 4.64H.648C.286 4.64 0 4.9 0 5.232v.51c0 .332.286.618.648.618H8.71L6.152 8.695c-.123.114-.191.26-.191.422 0 .161.068.31.191.424l.394.36c.123.113.288.175.464.175.176 0 .341-.063.465-.176l4.333-3.973c.124-.114.193-.265.192-.427 0-.162-.068-.314-.192-.427z"/>
</svg>
