<svg id="Capa_1" enable-background="new 0 0 512 512" height="512" viewBox="0 0 512 512" width="512" xmlns="http://www.w3.org/2000/svg"><g><g><g><g><g><g><g><circle cx="256" cy="256" fill="#7584f2" r="256"/></g></g></g></g></g></g><path d="m512 256c0-12.983-.967-25.742-2.832-38.206l-120.405-120.405-2.249 5.838-26.227-26.227-237.787 187.547-40.182-40.182-.596 63.17 95.805 95.805-17.917 51.66 76.216 76.216c6.657.519 13.384.784 20.174.784 141.385 0 256-114.615 256-256z" fill="#4253ce"/><g><g><path d="m352.39 435h-30v-76.474l-64.841-112.236 25.976-15.007 68.865 119.2z" fill="#cdd2e1"/></g><g><path d="m189.61 435h-30v-84.517l68.865-119.2 25.976 15.007-64.841 112.236z" fill="#cdd2e1"/></g></g><g><ellipse cx="376.767" cy="133.652" fill="#fff" rx="29.484" ry="54.407" transform="matrix(.924 -.383 .383 .924 -22.454 154.599)"/></g><g><path d="m404.322 123.159-54.565 22.309c11.568 27.451 32.916 44.639 47.862 38.438 14.894-6.181 17.831-33.268 6.703-60.747z" fill="#e9edf5"/></g><g><path d="m77.89 211.374h108.106v47.723h-108.106z" fill="#fff" transform="matrix(.924 -.383 .383 .924 -80.079 68.527)"/></g><g><path d="m81.655 255.081 9.507 22.91 99.851-41.43-9.291-22.393z" fill="#e9edf5"/></g><g><path d="m133.597 166.639h146.606v74.991h-146.606z" fill="#e9edf5" transform="matrix(.924 -.383 .383 .924 -62.436 94.88)"/></g><g><path d="m138.956 231.653 14.608 35.207 135.412-56.186-14.316-34.503z" fill="#cdd2e1"/></g><g><path d="m221.164 116.977h146.606v101.647h-146.606z" fill="#fff" transform="matrix(.924 -.383 .383 .924 -41.825 125.665)"/></g><g><path d="m226.711 195.774 19.527 47.063 135.413-56.186-19.236-46.359z" fill="#e9edf5"/></g><g><path d="m346.626 79.722h37.57v117.285h-37.57z" fill="#cdd2e1" transform="matrix(.924 -.383 .383 .924 -25.127 150.607)"/></g><g><path d="m348.272 146.074 22.263 53.655 34.701-14.399-22.187-53.474z" fill="#afb4c8"/></g><g><path d="m69.64 226.891h24.76v58.118h-24.76z" fill="#cdd2e1" transform="matrix(.924 -.383 .383 .924 -91.828 50.976)"/></g><g><path d="m70.199 259.765 11.523 27.77 22.869-9.489-11.473-27.652z" fill="#afb4c8"/></g><g><ellipse cx="256" cy="235.236" fill="#555a66" rx="31.578" ry="31.578" transform="matrix(.141 -.99 .99 .141 -12.952 455.547)"/></g></g></svg>