<svg xmlns="http://www.w3.org/2000/svg" width="30" height="30" fill="none" viewBox="0 0 30 30">
    <path fill="#6B82B7" d="M25.607 4.393C22.773 1.56 19.007 0 15 0S7.226 1.56 4.393 4.393C1.56 7.226 0 10.993 0 15s1.56 7.773 4.393 10.607C7.226 28.44 10.993 30 15 30s7.773-1.56 10.607-4.393C28.44 22.773 30 19.007 30 15s-1.56-7.773-4.393-10.607zm-3.44 7.037l-8.383 8.383c-.172.172-.397.257-.622.257-.225 0-.45-.085-.621-.257l-4.707-4.707c-.344-.343-.344-.9 0-1.243.343-.343.9-.343 1.243 0l4.085 4.085 7.761-7.76c.344-.344.9-.344 1.243 0 .344.342.344.899 0 1.242z"/>
</svg>
