<svg width="256" height="82" viewBox="0 0 256 82" fill="none" xmlns="http://www.w3.org/2000/svg">
<rect y="21" width="61" height="49" rx="10" fill="#6B82B7"/>
<path d="M80.1748 57.7197C81.9977 57.7197 83.4788 57.2184 84.6182 56.2158C85.7575 55.2132 86.3499 53.8802 86.3955 52.2168H95.6582C95.6354 54.7233 94.9518 57.0247 93.6074 59.1211C92.263 61.1947 90.4173 62.8125 88.0703 63.9746C85.7461 65.1139 83.1712 65.6836 80.3457 65.6836C75.0592 65.6836 70.8893 64.0088 67.8359 60.6592C64.7826 57.2868 63.2559 52.6383 63.2559 46.7139V46.0645C63.2559 40.3678 64.7712 35.8219 67.8018 32.4268C70.8324 29.0316 74.9909 27.334 80.2773 27.334C84.903 27.334 88.6058 28.6556 91.3857 31.2988C94.1885 33.9193 95.6126 37.417 95.6582 41.792H86.3955C86.3499 39.8779 85.7575 38.3285 84.6182 37.1436C83.4788 35.9359 81.9749 35.332 80.1064 35.332C77.805 35.332 76.0618 36.1751 74.877 37.8613C73.7148 39.5247 73.1338 42.2363 73.1338 45.9961V47.0215C73.1338 50.8268 73.7148 53.5612 74.877 55.2246C76.0391 56.888 77.805 57.7197 80.1748 57.7197Z" fill="#6B82B7"/>
<path d="M116.928 38.1641C116.107 38.0273 115.219 37.959 114.262 37.959C110.707 37.959 108.295 39.4727 107.025 42.5V65H101.605V33.3008H106.879L106.967 36.9629C108.744 34.1309 111.264 32.7148 114.525 32.7148C115.58 32.7148 116.381 32.8516 116.928 33.125V38.1641ZM134.506 65.5859C130.209 65.5859 126.713 64.1797 124.018 61.3672C121.322 58.5352 119.975 54.7559 119.975 50.0293V49.0332C119.975 45.8887 120.57 43.0859 121.762 40.625C122.973 38.1445 124.652 36.2109 126.801 34.8242C128.969 33.418 131.312 32.7148 133.832 32.7148C137.953 32.7148 141.156 34.0723 143.441 36.7871C145.727 39.502 146.869 43.3887 146.869 48.4473V50.7031H125.395C125.473 53.8281 126.381 56.3574 128.119 58.291C129.877 60.2051 132.104 61.1621 134.799 61.1621C136.713 61.1621 138.334 60.7715 139.662 59.9902C140.99 59.209 142.152 58.1738 143.148 56.8848L146.459 59.4629C143.803 63.5449 139.818 65.5859 134.506 65.5859ZM133.832 37.168C131.645 37.168 129.809 37.9688 128.324 39.5703C126.84 41.1523 125.922 43.3789 125.57 46.25H141.449V45.8398C141.293 43.0859 140.551 40.957 139.223 39.4531C137.895 37.9297 136.098 37.168 133.832 37.168ZM172.738 65C172.426 64.375 172.172 63.2617 171.977 61.6602C169.457 64.2773 166.449 65.5859 162.953 65.5859C159.828 65.5859 157.26 64.707 155.248 62.9492C153.256 61.1719 152.26 58.9258 152.26 56.2109C152.26 52.9102 153.51 50.3516 156.01 48.5352C158.529 46.6992 162.064 45.7812 166.615 45.7812H171.889V43.291C171.889 41.3965 171.322 39.8926 170.189 38.7793C169.057 37.6465 167.387 37.0801 165.18 37.0801C163.246 37.0801 161.625 37.5684 160.316 38.5449C159.008 39.5215 158.354 40.7031 158.354 42.0898H152.904C152.904 40.5078 153.461 38.9844 154.574 37.5195C155.707 36.0352 157.23 34.8633 159.145 34.0039C161.078 33.1445 163.197 32.7148 165.502 32.7148C169.154 32.7148 172.016 33.6328 174.086 35.4688C176.156 37.2852 177.23 39.7949 177.309 42.998V57.5879C177.309 60.498 177.68 62.8125 178.422 64.5312V65H172.738ZM163.744 60.8691C165.443 60.8691 167.055 60.4297 168.578 59.5508C170.102 58.6719 171.205 57.5293 171.889 56.123V49.6191H167.641C161 49.6191 157.68 51.5625 157.68 55.4492C157.68 57.1484 158.246 58.4766 159.379 59.4336C160.512 60.3906 161.967 60.8691 163.744 60.8691ZM193.158 25.625V33.3008H199.076V37.4902H193.158V57.1484C193.158 58.418 193.422 59.375 193.949 60.0195C194.477 60.6445 195.375 60.957 196.645 60.957C197.27 60.957 198.129 60.8398 199.223 60.6055V65C197.797 65.3906 196.41 65.5859 195.062 65.5859C192.641 65.5859 190.814 64.8535 189.584 63.3887C188.354 61.9238 187.738 59.8438 187.738 57.1484V37.4902H181.967V33.3008H187.738V25.625H193.158ZM203.412 48.8574C203.412 45.752 204.018 42.959 205.229 40.4785C206.459 37.998 208.158 36.084 210.326 34.7363C212.514 33.3887 215.004 32.7148 217.797 32.7148C222.113 32.7148 225.6 34.209 228.256 37.1973C230.932 40.1855 232.27 44.1602 232.27 49.1211V49.502C232.27 52.5879 231.674 55.3613 230.482 57.8223C229.311 60.2637 227.621 62.168 225.414 63.5352C223.227 64.9023 220.707 65.5859 217.855 65.5859C213.559 65.5859 210.072 64.0918 207.396 61.1035C204.74 58.1152 203.412 54.1602 203.412 49.2383V48.8574ZM208.861 49.502C208.861 53.0176 209.672 55.8398 211.293 57.9688C212.934 60.0977 215.121 61.1621 217.855 61.1621C220.609 61.1621 222.797 60.0879 224.418 57.9395C226.039 55.7715 226.85 52.7441 226.85 48.8574C226.85 45.3809 226.02 42.5684 224.359 40.4199C222.719 38.252 220.531 37.168 217.797 37.168C215.121 37.168 212.963 38.2324 211.322 40.3613C209.682 42.4902 208.861 45.5371 208.861 49.502ZM254.389 38.1641C253.568 38.0273 252.68 37.959 251.723 37.959C248.168 37.959 245.756 39.4727 244.486 42.5V65H239.066V33.3008H244.34L244.428 36.9629C246.205 34.1309 248.725 32.7148 251.986 32.7148C253.041 32.7148 253.842 32.8516 254.389 33.125V38.1641Z" fill="white"/>
<path d="M20.957 52.8398C21.9987 52.8398 22.8451 52.5534 23.4961 51.9805C24.1471 51.4076 24.4857 50.6458 24.5117 49.6953H29.8047C29.7917 51.1276 29.401 52.4427 28.6328 53.6406C27.8646 54.8255 26.8099 55.75 25.4688 56.4141C24.1406 57.0651 22.6693 57.3906 21.0547 57.3906C18.0339 57.3906 15.651 56.4336 13.9062 54.5195C12.1615 52.5924 11.2891 49.9362 11.2891 46.5508V46.1797C11.2891 42.9245 12.1549 40.3268 13.8867 38.3867C15.6185 36.4466 17.9948 35.4766 21.0156 35.4766C23.6589 35.4766 25.7747 36.2318 27.3633 37.7422C28.9648 39.2396 29.7786 41.2383 29.8047 43.7383H24.5117C24.4857 42.6445 24.1471 41.7591 23.4961 41.082C22.8451 40.3919 21.9857 40.0469 20.918 40.0469C19.6029 40.0469 18.6068 40.5286 17.9297 41.4922C17.2656 42.4427 16.9336 43.9922 16.9336 46.1406V46.7266C16.9336 48.901 17.2656 50.4635 17.9297 51.4141C18.5938 52.3646 19.6029 52.8398 20.957 52.8398ZM40.9375 50.1055L44.8633 35.8672H50.7617L43.6328 57H38.2422L31.1133 35.8672H37.0117L40.9375 50.1055Z" fill="white"/>
</svg>
