<svg xmlns="http://www.w3.org/2000/svg" width="126" height="89" fill="none" viewBox="0 0 126 89">
    <path fill="#000" fill-opacity=".05" d="M55.223 51.727c0 11.796-2.442 20.82-7.325 27.07-4.882 6.25-12.03 9.375-21.445 9.375-9.297 0-16.406-3.066-21.328-9.2C.203 72.84-2.316 64.052-2.434 52.607V36.901c0-11.914 2.461-20.957 7.383-27.129C9.91 3.602 17.04.516 26.336.516s16.406 3.066 21.328 9.199c4.922 6.094 7.441 14.863 7.559 26.308v15.704zM38.289 34.5c0-7.07-.977-12.207-2.93-15.41-1.914-3.242-4.922-4.863-9.023-4.863-3.984 0-6.934 1.543-8.848 4.628-1.875 3.047-2.87 7.832-2.988 14.356v20.742c0 6.953.938 12.129 2.813 15.528 1.914 3.359 4.96 5.038 9.14 5.038 4.14 0 7.129-1.62 8.965-4.863 1.836-3.242 2.793-8.203 2.871-14.883V34.5zM125.184 87H66.707V75.398l27.598-29.414c3.789-4.14 6.582-7.754 8.379-10.84 1.836-3.085 2.754-6.015 2.754-8.788 0-3.79-.958-6.758-2.872-8.907-1.914-2.187-4.648-3.281-8.203-3.281-3.828 0-6.855 1.328-9.082 3.984C83.094 20.77 82 24.227 82 28.523H65.008c0-5.195 1.23-9.941 3.691-14.238 2.5-4.297 6.016-7.656 10.547-10.078 4.531-2.46 9.668-3.691 15.41-3.691 8.789 0 15.606 2.109 20.449 6.328 4.883 4.218 7.325 10.175 7.325 17.87 0 4.22-1.094 8.517-3.282 12.892-2.187 4.374-5.937 9.472-11.25 15.292l-19.394 20.45h36.68V87z"/>
</svg>
