<svg xmlns="http://www.w3.org/2000/svg" width="124" height="89" fill="none" viewBox="0 0 124 89">
    <path fill="#000" fill-opacity=".05" d="M55.223 51.727c0 11.796-2.442 20.82-7.325 27.07-4.882 6.25-12.03 9.375-21.445 9.375-9.297 0-16.406-3.066-21.328-9.2C.203 72.84-2.316 64.052-2.434 52.607V36.901c0-11.914 2.461-20.957 7.383-27.129C9.91 3.602 17.04.516 26.336.516s16.406 3.066 21.328 9.199c4.922 6.094 7.441 14.863 7.559 26.308v15.704zM38.289 34.5c0-7.07-.977-12.207-2.93-15.41-1.914-3.242-4.922-4.863-9.023-4.863-3.984 0-6.934 1.543-8.848 4.628-1.875 3.047-2.87 7.832-2.988 14.356v20.742c0 6.953.938 12.129 2.813 15.528 1.914 3.359 4.96 5.038 9.14 5.038 4.14 0 7.129-1.62 8.965-4.863 1.836-3.242 2.793-8.203 2.871-14.883V34.5zm45.645 2.344h9.023c4.297 0 7.481-1.075 9.551-3.223 2.07-2.148 3.105-5 3.105-8.555 0-3.437-1.035-6.113-3.105-8.027-2.031-1.914-4.844-2.871-8.438-2.871-3.242 0-5.957.898-8.144 2.695-2.188 1.758-3.282 4.063-3.282 6.914H65.712c0-4.453 1.191-8.437 3.574-11.953 2.422-3.554 5.781-6.328 10.078-8.32C83.7 1.512 88.465.516 93.66.516c9.024 0 16.094 2.168 21.211 6.504 5.117 4.296 7.676 10.234 7.676 17.812 0 3.906-1.192 7.5-3.574 10.781-2.383 3.282-5.508 5.801-9.375 7.559 4.804 1.719 8.379 4.297 10.722 7.734 2.383 3.438 3.575 7.5 3.575 12.188 0 7.578-2.774 13.652-8.321 18.222-5.508 4.57-12.812 6.856-21.914 6.856-8.516 0-15.488-2.246-20.918-6.738-5.39-4.493-8.086-10.43-8.086-17.813H81.59c0 3.203 1.191 5.82 3.574 7.852 2.422 2.03 5.39 3.046 8.906 3.046 4.024 0 7.168-1.054 9.434-3.163 2.305-2.149 3.457-4.981 3.457-8.497 0-8.515-4.688-12.773-14.063-12.773h-8.964V36.844z"/>
</svg>
