<svg xmlns="http://www.w3.org/2000/svg" width="130" height="89" fill="none" viewBox="0 0 130 89">
    <path fill="#000" fill-opacity=".05" d="M58.223 51.727c0 11.796-2.442 20.82-7.325 27.07-4.882 6.25-12.03 9.375-21.445 9.375-9.297 0-16.406-3.066-21.328-9.2C3.203 72.84.684 64.052.566 52.607V36.901c0-11.914 2.461-20.957 7.383-27.129C12.91 3.602 20.04.516 29.336.516s16.406 3.066 21.328 9.199c4.922 6.094 7.441 14.863 7.559 26.308v15.704zM41.289 34.5c0-7.07-.977-12.207-2.93-15.41-1.914-3.242-4.922-4.863-9.023-4.863-3.984 0-6.934 1.543-8.848 4.628-1.875 3.047-2.87 7.832-2.988 14.356v20.742c0 6.953.938 12.129 2.813 15.528 1.914 3.359 4.96 5.038 9.14 5.038 4.14 0 7.129-1.62 8.965-4.863 1.836-3.242 2.793-8.203 2.871-14.883V34.5zm78.516 20.39h9.668v13.653h-9.668V87h-16.934V68.543h-34.98l-.762-10.664 35.566-56.191h17.11V54.89zm-35.801 0h18.867V24.774l-1.113 1.934-17.754 28.184z"/>
</svg>
